<?xml version="1.0" encoding="iso-8859-1"?>
<!-- Generator: Adobe Illustrator 19.0.0, SVG Export Plug-In . SVG Version: 6.00 Build 0)  -->
<svg version="1.1" id="Layer_1" xmlns="http://www.w3.org/2000/svg" xmlns:xlink="http://www.w3.org/1999/xlink" x="0px" y="0px"
	 viewBox="0 0 411.2 411.2" style="enable-background:new 0 0 411.2 411.2;" xml:space="preserve">
<polygon style="fill:#149931;" points="205.6,308.8 285.6,228.8 388,228.8 205.6,411.2 23.2,228.8 125.6,228.8 "/>
<polyline style="fill:#12B516;" points="205.6,410.4 23.2,228.8 125.6,228.8 205.6,308 285.6,228 "/>
<rect x="168.024" y="129.698" transform="matrix(0.7071 -0.7072 0.7072 0.7071 -58.071 194.4193)" style="fill:#149931;" width="75.205" height="75.205"/>
<polyline style="fill:#12B516;" points="205.6,220.8 152.8,167.2 205.6,114.4 "/>
<rect x="167.85" y="15.693" transform="matrix(0.7072 -0.7071 0.7071 0.7072 22.4828 160.8738)" style="fill:#149931;" width="75.205" height="75.205"/>
<g>
	<polyline style="fill:#12B516;" points="205.6,106.4 152.8,53.6 205.6,0 	"/>
	<polygon style="fill:#12B516;" points="13.6,348.8 77.6,348.8 85.6,364.8 13.6,364.8 	"/>
</g>
<g>
	<polygon style="fill:#149931;" points="13.6,388.8 132,388.8 140,404.8 13.6,404.8 	"/>
	<polygon style="fill:#149931;" points="397.6,388.8 279.2,388.8 271.2,404.8 397.6,404.8 	"/>
</g>
<polygon style="fill:#12B516;" points="397.6,348.8 333.6,348.8 325.6,364.8 397.6,364.8 "/>
<g>
</g>
<g>
</g>
<g>
</g>
<g>
</g>
<g>
</g>
<g>
</g>
<g>
</g>
<g>
</g>
<g>
</g>
<g>
</g>
<g>
</g>
<g>
</g>
<g>
</g>
<g>
</g>
<g>
</g>
</svg>
