<?xml version="1.0" encoding="iso-8859-1"?>
<!-- Generator: Adobe Illustrator 19.0.0, SVG Export Plug-In . SVG Version: 6.00 Build 0)  -->
<svg version="1.1" id="Layer_1" xmlns="http://www.w3.org/2000/svg" xmlns:xlink="http://www.w3.org/1999/xlink" x="0px" y="0px"
	 viewBox="0 0 453.22 453.22" style="enable-background:new 0 0 453.22 453.22;" xml:space="preserve">
<g>
	<path style="fill:#CCCCCC;" d="M453.22,356.16v30H0v-30h203.28c12.88,0,23.33,10.45,23.33,23.34c0-1.09,0.08-2.17,0.23-3.22
		c1.56-11.37,11.3-20.12,23.09-20.12H453.22z"/>
	<path style="fill:#F2F2F2;" d="M453.22,67.06v289.1H249.93c-11.79,0-21.53,8.75-23.09,20.12l-0.23-0.03V90.39
		c0-12.89,10.44-23.33,23.33-23.33H358.6v100.88l24-18l24,18V67.06H453.22z"/>
	<path style="fill:#F2F2F2;" d="M226.84,376.28c-0.15,1.05-0.23,2.13-0.23,3.22c0-12.89-10.45-23.34-23.33-23.34H0V67.06h203.28
		c12.88,0,23.33,10.44,23.33,23.33v285.86L226.84,376.28z"/>
	<path style="fill:#E6E6E6;" d="M249.94,67.06v289.1h-0.01c-11.79,0-21.53,8.75-23.09,20.12c-0.15,1.05-0.23,2.13-0.23,3.22
		c0-12.89-10.45-23.34-23.33-23.34V67.06c12.88,0,23.33,10.44,23.33,23.33C226.61,77.5,237.05,67.06,249.94,67.06z"/>
	<rect x="40.116" y="117.361" style="fill:#666666;" width="128.494" height="13"/>
	<rect x="40.116" y="150.659" style="fill:#666666;" width="128.494" height="13"/>
	<rect x="40.116" y="217.256" style="fill:#666666;" width="128.494" height="13"/>
	<rect x="40.116" y="283.853" style="fill:#666666;" width="128.494" height="13"/>
	<rect x="40.116" y="183.958" style="fill:#666666;" width="29.479" height="13"/>
	<rect x="100.949" y="183.958" style="fill:#666666;" width="67.661" height="13"/>
	<polygon style="fill:#666666;" points="91.777,197.058 78.716,197.058 78.716,184.058 91.716,184.058 	"/>
	<polygon style="fill:#666666;" points="129.743,263.555 116.683,263.555 116.683,250.555 129.683,250.555 	"/>
	<polygon style="fill:#666666;" points="374.71,230.256 361.649,230.256 361.649,217.256 374.649,217.256 	"/>
	<rect x="139.131" y="250.555" style="fill:#666666;" width="29.479" height="13"/>
	<rect x="40.116" y="250.555" style="fill:#666666;" width="67.661" height="13"/>
	<rect x="284.603" y="283.853" style="fill:#666666;" width="128.495" height="13"/>
	<rect x="284.603" y="250.555" style="fill:#666666;" width="128.495" height="13"/>
	<rect x="284.603" y="183.958" style="fill:#666666;" width="128.495" height="13"/>
	<rect x="284.603" y="117.361" style="fill:#666666;" width="80.495" height="13"/>
	<rect x="383.619" y="217.256" style="fill:#666666;" width="29.479" height="13"/>
	<g>
		<rect x="284.603" y="217.256" style="fill:#666666;" width="67.661" height="13"/>
	</g>
	<rect x="284.603" y="150.659" style="fill:#666666;" width="80.495" height="13"/>
	<polygon style="fill:#F4581B;" points="406.6,67.06 406.6,167.94 382.6,149.94 358.6,167.94 358.6,67.06 	"/>
</g>
<g>
</g>
<g>
</g>
<g>
</g>
<g>
</g>
<g>
</g>
<g>
</g>
<g>
</g>
<g>
</g>
<g>
</g>
<g>
</g>
<g>
</g>
<g>
</g>
<g>
</g>
<g>
</g>
<g>
</g>
</svg>
