<?xml version="1.0" encoding="iso-8859-1"?>
<!-- Generator: Adobe Illustrator 19.0.0, SVG Export Plug-In . SVG Version: 6.00 Build 0)  -->
<svg version="1.1" id="Layer_1" xmlns="http://www.w3.org/2000/svg" xmlns:xlink="http://www.w3.org/1999/xlink" x="0px" y="0px"
	 viewBox="0 0 494.4 494.4" style="enable-background:new 0 0 494.4 494.4;" xml:space="preserve">
<polygon style="fill:#149FDD;" points="247.2,102.4 167.2,182.4 64.8,182.4 247.2,0 429.6,182.4 327.2,182.4 "/>
<polyline style="fill:#1D76BF;" points="247.2,0 429.6,182.4 327.2,182.4 247.2,102.4 167.2,182.4 "/>
<rect x="209.416" y="204.082" transform="matrix(-0.7071 0.7072 -0.7072 -0.7071 592.5828 237.8882)" style="fill:#149FDD;" width="75.205" height="75.205"/>
<polyline style="fill:#1D76BF;" points="247.2,188.8 300,241.6 247.2,295.2 "/>
<rect x="209.813" y="318.316" transform="matrix(-0.7072 0.7071 -0.7071 -0.7072 674.0309 432.6727)" style="fill:#149FDD;" width="75.205" height="75.205"/>
<polyline style="fill:#1D76BF;" points="247.2,302.4 300,356 247.2,408.8 "/>
<rect x="135.2" y="438.4" style="fill:#149FDD;" width="224" height="16"/>
<rect x="135.2" y="478.4" style="fill:#1D76BF;" width="224" height="16"/>
<g>
</g>
<g>
</g>
<g>
</g>
<g>
</g>
<g>
</g>
<g>
</g>
<g>
</g>
<g>
</g>
<g>
</g>
<g>
</g>
<g>
</g>
<g>
</g>
<g>
</g>
<g>
</g>
<g>
</g>
</svg>
